<svg xmlns="http://www.w3.org/2000/svg" viewBox="0 0 256 256" role="img" aria-labelledby="title desc">
  <title id="title">Contextarium logo</title>
  <desc id="desc">A layered local-context mark with connected memory nodes.</desc>
  <defs>
    <linearGradient id="panel" x1="28" y1="30" x2="216" y2="230" gradientUnits="userSpaceOnUse">
      <stop offset="0" stop-color="#14b8a6"/>
      <stop offset="0.55" stop-color="#2563eb"/>
      <stop offset="1" stop-color="#111827"/>
    </linearGradient>
    <linearGradient id="node" x1="60" y1="54" x2="190" y2="196" gradientUnits="userSpaceOnUse">
      <stop offset="0" stop-color="#f8fafc"/>
      <stop offset="1" stop-color="#dbeafe"/>
    </linearGradient>
  </defs>
  <rect width="256" height="256" rx="58" fill="#0f172a"/>
  <path d="M58 75c0-17.7 14.3-32 32-32h76c17.7 0 32 14.3 32 32v106c0 17.7-14.3 32-32 32H90c-17.7 0-32-14.3-32-32V75Z" fill="url(#panel)"/>
  <path d="M82 82c0-8.8 7.2-16 16-16h60c8.8 0 16 7.2 16 16v92c0 8.8-7.2 16-16 16H98c-8.8 0-16-7.2-16-16V82Z" fill="#0f172a" opacity=".38"/>
  <path d="M101 91h54M101 121h54M101 151h34" stroke="#dbeafe" stroke-width="10" stroke-linecap="round" opacity=".96"/>
  <path d="M90 77h76c12.2 0 22 9.8 22 22v70" stroke="#e0f2fe" stroke-width="6" stroke-linecap="round" opacity=".35"/>
  <circle cx="75" cy="80" r="18" fill="url(#node)"/>
  <circle cx="181" cy="128" r="18" fill="url(#node)"/>
  <circle cx="87" cy="178" r="18" fill="url(#node)"/>
  <path d="M91 87l74 34M101 173l64-36" stroke="#bfdbfe" stroke-width="7" stroke-linecap="round"/>
  <circle cx="75" cy="80" r="7" fill="#0f172a"/>
  <circle cx="181" cy="128" r="7" fill="#0f172a"/>
  <circle cx="87" cy="178" r="7" fill="#0f172a"/>
</svg>
